<?xml version="1.0" standalone="no"?>
<!DOCTYPE svg PUBLIC "-//W3C//DTD SVG 20010904//EN"
 "http://www.w3.org/TR/2001/REC-SVG-20010904/DTD/svg10.dtd">
<svg version="1.0" xmlns="http://www.w3.org/2000/svg"
 width="512.000000pt" height="512.000000pt" viewBox="0 0 512.000000 512.000000"
 preserveAspectRatio="xMidYMid meet">
<metadata>
Created by potrace 1.14, written by Peter Selinger 2001-2017
</metadata>
<g transform="translate(0.000000,512.000000) scale(0.100000,-0.100000)"
fill="#000000" stroke="none">
<path d="M344 4257 c-6 -20 -8 -20 -13 -4 -6 17 -9 16 -36 -7 -65 -57 -94 -89
-89 -98 4 -5 -4 -16 -16 -25 -12 -8 -19 -21 -16 -30 3 -8 2 -12 -3 -9 -8 5
-58 -84 -52 -94 2 -3 8 -4 14 -2 7 1 1 -6 -12 -16 -14 -11 -21 -24 -17 -31 4
-7 2 -19 -6 -28 -7 -9 -8 -14 -3 -11 6 4 17 3 25 -3 13 -7 12 -9 -2 -9 -22 0
-23 -14 -2 -35 15 -15 15 -17 -5 -22 -11 -3 -21 -12 -21 -20 0 -8 4 -12 9 -8
5 3 13 0 17 -6 4 -7 3 -9 -3 -6 -6 4 -13 0 -17 -8 -3 -8 0 -15 6 -15 9 0 9 -3
0 -12 -7 -7 -12 -20 -12 -30 0 -10 -5 -18 -12 -18 -6 0 -8 -3 -5 -6 11 -11 36
16 30 32 -3 8 0 14 7 14 6 0 8 -4 5 -10 -3 -5 0 -10 7 -10 10 0 10 -2 -1 -9
-11 -7 -9 -10 8 -16 13 -4 20 -9 18 -12 -3 -2 -15 0 -26 7 -18 9 -22 8 -28 -7
-4 -10 -11 -21 -17 -25 -8 -5 -7 -11 2 -20 9 -9 12 -9 12 0 0 23 15 12 16 -13
1 -14 -1 -25 -5 -25 -6 0 -7 -40 -2 -72 1 -5 10 -8 20 -8 11 0 23 -5 27 -12 5
-7 3 -8 -5 -3 -10 5 -10 2 0 -13 10 -17 10 -23 0 -36 -9 -11 -10 -16 -2 -16
19 0 25 -4 52 -30 14 -14 23 -29 21 -34 -3 -4 1 -12 8 -16 9 -5 9 -13 1 -27
-12 -24 -6 -34 17 -26 14 4 15 3 2 -5 -8 -6 -18 -8 -22 -6 -4 3 -8 0 -8 -7 0
-6 8 -9 20 -6 11 3 18 1 14 -4 -3 -5 0 -9 6 -9 6 0 3 -12 -7 -27 -17 -28 -17
-28 3 -10 17 14 23 15 31 5 14 -19 34 -71 36 -97 1 -13 6 -20 14 -17 7 3 13 1
13 -4 0 -6 -4 -10 -8 -10 -5 0 -7 -13 -4 -30 2 -16 9 -30 14 -30 5 0 7 -13 5
-28 -3 -21 2 -34 19 -49 13 -12 24 -16 24 -10 0 7 7 4 14 -6 8 -10 16 -14 18
-10 3 4 3 3 2 -4 -5 -20 13 -68 25 -66 6 2 11 -2 11 -7 0 -6 -5 -10 -11 -10
-6 0 -3 -7 5 -16 19 -18 21 -38 4 -28 -8 5 -8 1 2 -12 22 -29 24 -30 17 -11
-4 12 -3 16 4 11 6 -3 9 -15 6 -25 -6 -21 8 -26 16 -6 3 6 4 -12 2 -41 -1 -29
1 -55 6 -58 5 -3 7 -10 4 -15 -3 -5 1 -6 9 -3 9 3 16 1 16 -5 0 -6 -5 -11 -10
-11 -14 0 -8 -22 10 -38 13 -12 13 -13 0 -7 -8 4 -4 -3 10 -15 14 -12 19 -19
13 -15 -7 3 -13 1 -13 -5 0 -7 8 -9 19 -5 24 7 37 -11 14 -19 -14 -6 -14 -9 5
-22 12 -8 22 -20 22 -26 0 -7 -7 -3 -16 8 -15 18 -15 18 -5 -2 6 -12 7 -25 3
-29 -4 -5 -1 -5 6 -1 6 4 12 3 12 -3 0 -5 -6 -12 -12 -14 -12 -5 16 -11 35 -8
11 2 9 -13 -4 -26 -8 -8 -7 -13 2 -18 8 -6 10 -4 4 6 -7 12 -5 12 6 1 11 -10
11 -14 1 -21 -10 -6 -10 -10 2 -20 11 -9 16 -9 22 0 4 8 3 9 -4 5 -12 -7 -17
6 -6 17 9 8 35 -4 29 -13 -10 -16 24 -38 47 -32 38 10 60 39 24 33 -5 -1 -4 5
4 13 11 14 9 16 -12 16 -36 0 -40 -10 -15 -31 12 -10 18 -18 14 -19 -17 0 -50
40 -52 65 -3 22 -1 24 11 14 8 -6 14 -8 14 -5 0 4 10 2 22 -5 18 -10 20 -9 15
6 -4 9 -7 21 -7 26 0 5 -5 9 -11 9 -5 0 -7 -5 -3 -12 4 -7 3 -8 -5 -4 -9 6 -9
11 -1 21 8 10 6 17 -8 27 -21 15 -42 45 -24 34 7 -4 12 -3 12 2 0 5 -10 14
-22 21 -13 6 -16 10 -7 7 9 -2 16 2 16 9 0 7 -6 11 -13 8 -12 -4 -13 7 -1 37
3 8 5 23 4 32 0 15 -3 15 -16 5 -12 -9 -13 -9 -7 1 4 8 1 12 -9 12 -11 0 -15
5 -11 16 3 8 2 12 -4 9 -9 -6 -11 -1 -14 38 -1 6 -8 18 -16 25 -8 8 -9 11 -2
7 7 -4 12 0 12 9 0 9 -5 16 -11 16 -6 0 -8 7 -5 16 3 8 2 12 -4 9 -6 -4 -10 7
-10 24 0 17 -5 31 -11 31 -5 0 -8 4 -4 10 3 5 -3 26 -14 46 -11 21 -18 41 -15
46 3 4 -6 7 -20 6 -15 -1 -26 -6 -26 -10 0 -4 -4 -8 -9 -8 -13 0 -8 25 8 44
12 14 11 16 -8 16 -11 0 -21 5 -21 11 0 6 9 8 21 4 19 -6 20 -5 9 14 -6 12 -8
26 -5 31 3 5 1 11 -4 15 -5 3 -8 14 -6 25 2 11 0 20 -4 20 -11 0 -32 50 -26
60 3 4 -6 15 -20 24 -14 9 -25 22 -25 28 0 7 6 4 13 -7 11 -14 16 -15 22 -5 5
9 4 11 -3 6 -7 -4 -12 -1 -12 8 0 9 -7 16 -15 16 -9 0 -18 7 -22 16 -5 13 -7
13 -14 2 -7 -10 -9 -11 -9 0 0 7 -4 10 -10 7 -6 -3 -10 -2 -10 2 0 5 9 14 21
21 12 8 18 9 14 3 -3 -6 -4 -11 -1 -11 3 0 10 10 17 21 6 12 7 19 1 15 -5 -3
-12 1 -16 9 -6 16 9 29 23 21 5 -4 7 3 4 14 -3 11 -10 20 -16 20 -6 0 -8 3 -4
6 6 6 -28 44 -40 44 -4 0 -2 -5 5 -12 15 -15 16 -28 2 -28 -5 0 -10 7 -10 15
0 8 -6 15 -12 15 -9 0 -8 4 2 10 11 7 12 10 2 10 -10 0 -10 4 2 15 8 9 12 23
9 31 -3 9 0 20 8 25 12 7 12 9 -1 9 -13 0 -13 1 0 10 9 6 10 10 3 10 -6 0 -15
-4 -18 -10 -3 -5 -14 -10 -23 -10 -15 1 -15 2 1 14 10 8 18 18 19 23 0 4 4 7
10 5 5 -1 6 2 3 8 -4 6 -14 9 -24 6 -11 -4 -10 -2 4 10 20 16 20 16 -1 11 -12
-2 -28 -1 -35 4 -10 6 -10 9 -2 9 7 0 10 7 7 15 -4 8 -9 13 -13 10 -4 -2 -8 2
-8 10 0 10 4 11 11 6 7 -6 20 -3 34 8 l23 17 -25 14 c-14 7 -26 17 -26 22 0 5
9 4 19 -2 24 -12 37 3 16 20 -7 6 -11 18 -8 26 3 8 0 21 -7 29 -6 8 -10 20 -7
27 4 8 6 7 6 -4 1 -11 6 -15 16 -12 12 5 13 10 5 19 -9 11 -6 12 12 9 20 -5
21 -4 5 6 -9 6 -15 15 -12 21 4 5 3 15 -2 22 -4 6 -8 17 -9 22 -1 6 -6 19 -10
29 -5 14 -4 17 4 12 7 -4 12 -2 12 3 0 6 -5 11 -11 11 -6 0 -3 7 6 16 13 13
14 19 4 25 -7 4 -17 5 -23 2 -5 -3 -6 -1 -2 5 5 9 13 9 26 2 25 -13 51 -13 28
1 -19 10 -25 39 -9 39 5 0 7 8 4 19 -3 10 0 22 5 25 6 4 8 -2 5 -14 -3 -11 0
-20 6 -20 6 0 11 5 11 11 0 6 7 8 16 5 8 -3 13 -2 10 3 -3 5 1 12 9 15 9 3 18
-1 22 -10 5 -13 7 -13 14 -2 7 10 9 9 9 -4 0 -20 15 -24 25 -8 4 6 11 8 16 4
5 -3 7 -9 4 -14 -3 -4 3 -14 12 -21 14 -12 16 -12 8 1 -6 12 -5 13 6 3 7 -7
21 -13 31 -13 10 0 18 6 18 13 0 6 8 -3 17 -21 10 -21 19 -30 26 -23 13 13 37
2 37 -18 0 -14 2 -14 10 -1 8 13 10 13 10 -2 0 -17 15 -19 37 -5 9 6 11 3 7
-8 -4 -10 -2 -14 8 -10 8 3 24 -5 37 -19 22 -23 24 -24 58 -10 21 9 32 11 28
4 -10 -17 40 -59 58 -49 12 7 14 4 9 -14 -5 -19 -3 -20 10 -9 16 13 48 7 48
-10 0 -5 5 -6 10 -3 6 4 7 11 4 17 -4 7 -2 8 4 4 9 -5 9 -13 1 -27 -9 -19 -9
-19 10 -10 26 15 29 14 27 -6 -1 -13 6 -18 26 -17 15 1 25 -3 22 -8 -3 -4 -9
-6 -14 -3 -4 3 -3 -6 3 -19 l12 -24 12 29 c7 16 15 29 18 29 3 0 3 -4 0 -10
-3 -5 -1 -10 5 -10 6 0 8 -4 5 -10 -3 -5 1 -10 9 -10 9 0 16 5 16 11 0 5 5 7
10 4 6 -3 7 -18 3 -33 -6 -24 -5 -26 11 -13 9 8 19 11 23 8 3 -4 12 -2 19 4 8
7 14 6 20 -2 4 -7 3 -9 -3 -6 -6 4 -14 0 -17 -9 -9 -22 -9 -22 22 -26 17 -2
26 -8 24 -17 -3 -12 0 -12 13 -1 13 11 15 10 9 -4 -7 -19 7 -21 25 -3 7 6 12
8 11 2 -2 -5 -2 -17 -1 -25 1 -12 5 -11 19 5 9 11 16 18 15 16 -2 -2 3 -11 10
-19 8 -11 8 -14 0 -9 -19 12 -23 -8 -5 -24 9 -8 21 -15 26 -16 5 -1 13 -7 17
-15 7 -10 9 -10 9 0 0 6 5 12 12 12 6 0 8 -3 5 -7 -4 -3 -2 -12 4 -20 9 -10
15 -10 25 -2 10 8 14 8 14 0 0 -6 11 -10 25 -9 14 1 25 7 25 12 0 5 2 7 5 4 3
-3 1 -17 -4 -31 -8 -20 -7 -30 4 -41 8 -8 15 -19 15 -25 0 -6 5 -11 10 -11 6
0 29 -12 51 -26 23 -14 47 -23 55 -20 7 3 16 0 20 -6 5 -7 2 -8 -7 -3 -12 7
-12 6 0 -6 10 -10 15 -11 18 -2 2 7 11 9 19 6 13 -5 13 -7 2 -14 -9 -6 -9 -9
-1 -9 19 0 26 20 9 26 -22 9 -20 23 3 21 11 0 19 -5 18 -10 -1 -5 4 -12 12
-15 10 -3 12 0 8 11 -3 9 -2 19 4 22 5 4 7 11 3 16 -3 6 11 7 38 3 24 -4 44
-11 46 -15 2 -5 10 -2 19 6 16 17 48 21 38 5 -3 -5 -1 -10 4 -10 6 0 11 5 11
11 0 5 5 7 10 4 6 -3 10 1 10 11 0 15 2 15 25 0 30 -20 36 -20 29 -2 -3 8 0
17 7 22 8 4 10 3 5 -4 -4 -7 -1 -12 10 -12 14 0 14 -3 4 -15 -11 -13 -10 -15
1 -11 8 2 27 7 42 10 17 4 26 11 22 19 -4 7 0 4 8 -5 18 -23 27 -23 22 0 -2
10 1 25 6 33 7 11 9 10 9 -6 0 -11 10 -26 21 -34 19 -11 24 -10 43 9 18 20 19
22 3 16 -22 -7 -64 18 -47 29 8 5 7 11 -2 23 -12 15 -11 16 4 4 9 -8 14 -20
11 -28 -4 -12 0 -13 21 -4 15 5 30 9 34 9 26 -4 34 1 22 16 -11 13 -10 14 5 9
12 -5 16 -4 11 4 -3 6 -1 14 5 18 8 4 9 3 5 -4 -4 -7 -3 -12 3 -12 19 0 21 19
4 29 -10 5 -14 13 -10 18 5 4 14 0 21 -9 7 -10 16 -15 20 -11 4 4 4 -1 0 -11
-5 -14 -4 -17 5 -11 9 5 12 2 9 -11 -2 -11 -9 -18 -14 -17 -17 3 -10 -34 8
-46 11 -7 18 -7 18 -1 0 5 6 8 13 6 6 -1 9 -1 5 1 -4 2 -4 11 -1 19 4 10 0 12
-11 8 -9 -3 -13 -10 -10 -15 3 -5 0 -9 -6 -9 -14 0 -9 35 5 35 6 1 21 7 34 14
19 11 25 11 32 0 5 -8 2 -20 -7 -30 -19 -21 -18 -30 4 -22 15 6 15 5 3 -10
-12 -15 -12 -17 3 -11 9 3 16 10 16 16 0 5 5 6 10 3 6 -4 7 -12 4 -18 -5 -9
-4 -9 5 -1 10 9 9 17 -5 38 -21 34 -5 59 21 32 15 -15 29 -20 48 -17 4 0 7 -3
7 -7 0 -5 18 -9 40 -9 22 0 40 5 40 11 0 6 4 6 11 -1 9 -9 15 -9 25 0 35 32
42 35 55 26 11 -7 10 -9 -4 -9 -11 0 -15 -4 -11 -12 5 -7 3 -8 -6 -3 -10 6
-11 3 -6 -16 4 -13 8 -29 8 -36 1 -7 5 -10 9 -8 4 3 5 13 2 23 -2 10 3 25 13
33 16 13 16 12 6 -7 -10 -18 -8 -25 11 -40 18 -16 19 -16 8 -2 -11 15 -11 19
3 24 9 3 16 10 16 16 0 5 -6 6 -12 2 -10 -6 -10 -4 0 8 10 13 10 18 1 24 -8 5
-9 3 -4 -6 6 -9 4 -11 -4 -5 -10 5 -10 10 -1 19 15 14 43 -21 36 -47 -2 -9 0
-15 5 -11 5 3 9 -1 10 -8 0 -7 4 -4 9 7 5 14 3 24 -8 33 -19 15 -8 16 19 1 16
-8 18 -13 8 -25 -7 -8 -7 -14 -1 -14 20 0 21 30 2 42 -11 7 -20 19 -20 26 0 7
5 10 10 7 6 -3 13 1 16 10 4 8 16 21 28 27 l21 11 -20 -23 c-16 -19 -17 -22
-3 -17 21 8 52 -25 37 -40 -8 -8 -2 -10 20 -8 31 3 61 -19 46 -33 -4 -4 -10
-1 -12 5 -3 9 -10 10 -22 4 -10 -6 -23 -6 -31 -1 -17 10 -30 4 -30 -15 0 -9
10 -13 35 -10 19 2 35 0 35 -4 0 -12 44 -5 48 7 2 7 10 12 18 12 9 0 13 -4 9
-9 -3 -5 -1 -12 4 -15 5 -4 12 -2 16 3 3 6 12 8 20 5 8 -4 13 -10 10 -14 -3
-5 0 -12 6 -16 8 -5 9 -3 4 6 -6 10 0 12 24 8 18 -3 36 1 42 8 6 7 17 10 26 7
13 -5 14 -3 3 18 -12 22 -11 22 16 -4 17 -17 35 -26 46 -24 10 3 25 -1 33 -10
12 -11 15 -11 15 -1 0 10 2 10 9 -1 7 -11 10 -9 16 8 3 11 11 21 17 21 6 0 8
-3 5 -7 -13 -12 37 -31 52 -19 11 8 13 8 7 -1 -7 -12 5 -18 27 -14 5 1 6 -8 2
-19 -6 -20 9 -28 20 -10 3 5 14 10 23 10 15 0 15 -2 2 -10 -9 -6 -10 -10 -3
-10 6 0 18 7 26 15 8 8 17 12 19 9 3 -2 11 2 18 11 7 8 18 15 25 15 7 0 18 7
25 15 7 8 16 13 20 10 5 -3 12 5 15 17 4 13 15 32 24 42 9 11 11 16 5 13 -7
-4 -17 -1 -23 7 -9 11 -4 12 29 6 22 -4 37 -4 35 1 -3 4 -1 10 5 14 5 3 10 1
10 -6 0 -13 14 -3 16 12 1 5 2 12 3 15 0 4 9 0 18 -7 11 -10 14 -10 9 -1 -5 8
-1 12 12 12 11 0 27 11 36 25 9 14 21 23 26 20 6 -4 10 4 10 17 0 13 3 18 8
12 5 -8 16 -7 39 6 18 9 29 21 25 25 -4 5 0 6 10 2 21 -7 31 3 18 18 -8 9 -3
13 17 13 16 0 31 -5 34 -10 4 -7 9 -6 13 1 4 6 2 11 -3 11 -6 0 -11 11 -11 25
0 14 5 25 12 25 6 0 8 -3 5 -7 -8 -7 11 -33 24 -33 4 0 6 9 4 21 -4 20 -3 20
20 5 30 -20 32 -20 32 -1 0 8 -5 15 -10 15 -6 0 -7 3 -4 6 4 4 13 1 21 -5 12
-10 17 -8 26 8 8 16 8 21 -1 21 -7 0 -9 3 -6 6 4 4 14 1 24 -7 14 -12 16 -12
11 1 -7 18 37 55 47 40 3 -5 3 -15 -1 -22 -4 -7 -3 -8 4 -4 7 4 12 2 12 -4 0
-6 5 -8 11 -4 8 5 8 9 -1 14 -8 5 -4 9 12 14 19 5 21 8 8 17 -12 8 -11 9 5 5
23 -6 39 2 48 27 7 18 27 24 27 6 0 -5 -5 -7 -12 -3 -7 4 -8 3 -4 -4 4 -7 15
-8 30 -2 13 5 27 6 30 3 3 -3 8 2 12 11 3 9 13 16 21 16 8 0 11 5 8 10 -6 10
5 12 52 13 12 0 20 3 17 8 -6 10 33 32 49 26 7 -2 19 3 27 12 18 20 80 43 80
30 0 -5 5 -9 11 -9 5 0 8 4 5 8 -2 4 4 13 15 20 11 7 19 8 19 2 0 -5 9 -2 20
7 11 10 20 23 20 31 0 10 3 10 14 0 11 -10 11 -17 3 -28 -6 -8 0 -6 13 6 32
27 57 36 57 19 0 -7 -8 -10 -19 -7 -10 2 -18 -1 -18 -7 0 -6 7 -11 15 -11 9 0
12 -6 8 -17 -4 -10 -2 -14 5 -9 6 3 13 2 17 -4 3 -5 2 -10 -3 -10 -6 0 -12 -7
-16 -15 -5 -15 17 -17 40 -3 6 4 11 1 11 -7 0 -8 -4 -12 -9 -9 -4 3 -8 -6 -8
-20 0 -14 4 -28 10 -31 19 -12 10 -25 -17 -26 -16 -1 -21 -3 -11 -6 16 -4 16
-5 0 -22 -9 -10 -20 -16 -24 -14 -4 2 -5 -3 -1 -13 5 -14 8 -13 19 7 12 22 20
18 14 -6 -1 -5 -4 -21 -6 -35 l-3 -25 18 24 c14 18 20 21 26 11 5 -9 4 -11 -3
-6 -7 4 -12 3 -12 -3 0 -5 5 -13 10 -16 8 -5 8 -11 0 -20 -6 -7 -10 -17 -9
-21 3 -21 -2 -35 -11 -29 -6 4 -7 -1 -3 -11 5 -13 3 -15 -8 -9 -8 5 -11 4 -6
0 12 -14 38 -15 30 -2 -4 7 2 5 12 -3 18 -14 17 -15 -4 -18 -17 -3 -22 -9 -18
-23 3 -12 0 -22 -9 -26 -8 -3 -14 -9 -14 -14 0 -5 11 -2 26 7 19 13 28 14 37
5 9 -10 8 -11 -8 -5 -18 7 -18 6 -7 -9 19 -22 8 -35 -25 -30 -24 4 -25 3 -10
-7 9 -6 15 -15 12 -21 -4 -5 -3 -15 2 -21 13 -22 12 -37 -4 -31 -8 3 -12 12
-9 19 3 7 0 16 -7 20 -7 4 -9 4 -5 0 4 -5 3 -18 -2 -31 -7 -18 -5 -25 7 -29
12 -5 13 -9 3 -21 -10 -12 -16 -13 -26 -4 -10 8 -14 8 -14 1 0 -6 4 -13 10
-17 5 -3 6 -13 3 -22 -5 -14 -3 -13 23 2 23 13 25 14 10 1 -15 -12 -16 -16 -5
-16 12 0 12 -2 0 -9 -11 -7 -11 -10 0 -15 8 -3 3 -3 -11 0 -14 4 -28 11 -31
16 -3 5 -9 0 -12 -11 -3 -13 1 -25 11 -31 13 -8 10 -9 -13 -5 -16 3 -24 2 -17
-1 6 -3 10 -10 6 -15 -3 -5 0 -8 6 -7 7 2 16 -8 21 -21 8 -21 7 -22 -6 -11 -9
7 -18 10 -22 6 -3 -3 -1 -6 6 -6 7 0 9 -5 5 -12 -4 -6 -3 -8 3 -5 6 4 19 0 29
-8 28 -21 43 -18 38 8 -4 20 -4 20 5 2 11 -25 4 -37 -17 -33 -10 1 -23 -1 -29
-5 -9 -6 -11 -3 -7 10 3 11 -3 7 -16 -10 -12 -15 -26 -25 -31 -22 -5 4 -7 -8
-5 -24 2 -21 -1 -31 -10 -31 -20 0 -17 -25 4 -41 15 -12 16 -12 5 2 -10 13
-10 16 1 16 7 0 12 -10 12 -23 -2 -24 -16 -47 -16 -24 0 10 -3 10 -14 1 -12
-10 -13 -8 -9 11 4 17 3 20 -6 12 -13 -12 -23 -46 -25 -91 0 -17 -4 -29 -8
-27 -4 2 -9 0 -12 -5 -4 -5 5 -8 19 -6 14 1 25 -2 25 -6 0 -5 -11 -9 -25 -9
-24 0 -24 -1 12 -36 21 -20 32 -33 24 -29 -7 4 -29 11 -47 15 -28 7 -36 5 -45
-11 -7 -14 -6 -19 2 -19 7 0 9 -3 5 -7 -4 -5 -13 -8 -19 -8 -7 0 -12 -16 -12
-37 0 -27 -3 -34 -12 -27 -8 7 -11 3 -9 -15 2 -15 -1 -26 -6 -26 -5 0 -6 -5
-3 -10 3 -6 -1 -17 -9 -26 -19 -18 -21 -38 -3 -27 6 4 4 -6 -7 -21 -10 -16
-14 -26 -9 -23 5 3 15 -3 21 -14 12 -19 11 -19 -9 -8 -19 10 -21 9 -15 -6 4
-13 2 -16 -9 -11 -10 3 -15 -1 -15 -12 -1 -15 -3 -15 -17 3 -15 19 -15 19 -9
1 4 -12 1 -23 -6 -28 -11 -6 -11 -8 0 -8 10 0 10 -5 1 -21 -8 -16 -8 -24 2
-33 9 -8 10 -8 4 4 -5 8 4 4 18 -9 23 -20 28 -41 11 -41 -3 0 -3 4 1 9 6 11
-12 25 -37 26 -15 1 -15 -1 -5 -14 8 -10 9 -13 0 -8 -6 4 -14 3 -18 -3 -6 -9
8 -15 29 -11 5 1 4 -4 -2 -12 -7 -8 -8 -18 -4 -22 4 -5 1 -5 -6 -1 -7 4 -9 12
-6 18 4 6 -2 6 -15 -1 -11 -7 -21 -14 -21 -17 0 -3 4 -2 10 1 12 8 13 -5 1
-23 -4 -8 -12 -12 -16 -10 -12 4 -23 -43 -16 -67 6 -21 31 -33 31 -15 0 6 5
10 11 10 8 0 8 -4 0 -14 -12 -15 -28 -16 -48 -3 -9 6 -11 3 -7 -7 8 -21 85
-18 81 4 -1 8 7 16 18 18 15 2 17 1 6 -6 -9 -7 -10 -12 -2 -16 6 -4 11 -2 11
4 0 6 5 8 13 4 8 -5 7 -2 -2 9 -8 10 -11 21 -7 24 4 4 11 1 15 -6 6 -9 11 -10
15 -2 4 6 3 11 -1 11 -5 0 -9 9 -10 21 -1 14 3 19 12 15 8 -3 19 3 25 14 6 11
8 20 4 20 -3 0 0 8 7 18 13 15 12 16 -3 3 -23 -17 -23 -8 -1 14 16 16 16 18
-1 27 -14 8 -15 13 -5 24 8 10 15 11 24 4 9 -8 14 -4 20 12 4 13 7 26 6 31 -1
4 6 7 14 7 18 0 16 20 -5 38 -13 12 -13 13 0 9 22 -6 44 19 24 27 -10 4 -13 2
-8 -6 4 -7 3 -8 -5 -4 -9 6 -9 11 0 22 14 17 23 19 13 2 -4 -7 -3 -8 4 -4 6 4
9 12 7 19 -2 7 -7 25 -9 40 -4 23 -2 26 8 18 13 -11 26 -5 26 11 0 5 -6 6 -12
2 -8 -5 -8 -1 2 12 22 29 24 30 17 12 -3 -10 -2 -20 3 -23 4 -3 7 7 5 22 -1
16 5 38 16 51 10 13 15 31 12 39 -5 12 -2 15 9 10 12 -4 14 -1 11 13 -5 20 20
54 31 43 3 -3 8 2 12 11 3 9 12 16 18 16 7 0 13 7 13 15 0 10 -6 14 -15 10
-10 -4 -12 0 -8 11 3 8 6 18 6 20 0 3 5 2 10 -1 6 -3 10 -2 10 4 0 5 -5 11
-11 13 -7 2 -4 10 7 18 10 8 15 10 11 3 -4 -6 -2 -15 4 -19 7 -4 9 -3 5 4 -3
6 4 18 16 26 12 9 17 16 11 16 -7 0 -15 -5 -19 -11 -5 -8 -10 -6 -16 5 -5 9
-15 13 -21 10 -7 -4 1 7 17 24 28 30 46 34 46 9 0 -8 -3 -8 -9 2 -5 7 -11 9
-14 5 -3 -5 1 -14 8 -21 18 -16 30 14 14 33 -8 9 -8 14 -1 14 6 0 14 -5 18
-11 4 -8 9 -7 15 2 12 19 11 29 -2 29 -5 0 -7 -5 -3 -12 5 -8 2 -9 -10 -5 -10
4 -20 7 -22 7 -3 0 -2 5 2 12 4 7 3 8 -5 4 -6 -4 -9 -12 -6 -17 4 -5 2 -9 -4
-9 -5 0 -12 4 -15 8 -7 12 37 34 59 30 11 -2 19 4 20 15 2 9 -1 17 -6 17 -5 0
-9 -4 -9 -10 0 -5 -5 -10 -12 -10 -6 0 -4 7 5 18 10 10 17 27 18 38 0 10 3 13
6 7 2 -7 12 -13 20 -13 11 0 13 3 5 13 -15 17 -15 19 -3 50 6 16 7 26 3 23 -5
-3 -9 1 -9 8 0 8 6 12 14 9 7 -3 13 0 13 7 0 9 4 9 18 -1 13 -10 12 -8 -3 10
-11 14 -15 21 -8 18 6 -4 13 -2 15 3 2 6 14 12 26 13 21 1 21 3 7 13 -9 7 -15
14 -13 17 2 3 -1 9 -6 14 -5 5 -6 2 -1 -6 5 -9 4 -12 -3 -7 -6 3 -14 1 -18 -5
-4 -7 -3 -9 4 -5 6 3 13 2 16 -3 3 -5 -1 -11 -9 -15 -8 -3 -17 -1 -20 4 -3 5
-11 8 -18 6 -7 -1 -9 -1 -4 1 4 3 4 9 1 14 -7 12 14 39 29 39 6 0 2 -6 -9 -14
-10 -8 -15 -18 -11 -23 5 -4 23 8 40 27 17 19 34 34 37 33 3 -1 11 8 18 20 12
19 13 19 7 2 -5 -15 -3 -17 6 -8 14 14 2 36 -17 29 -8 -3 -14 -1 -14 4 0 5 -7
7 -15 4 -8 -4 -15 -1 -15 6 0 6 5 8 12 4 7 -5 9 -2 5 9 -4 11 -2 14 8 10 8 -3
12 -9 9 -14 -3 -5 1 -9 9 -9 8 0 17 9 20 20 3 11 1 18 -3 15 -5 -3 -11 -1 -15
5 -6 9 6 14 31 11 6 -1 11 5 11 14 0 8 -4 12 -8 9 -14 -8 -21 56 -8 72 7 8 8
14 3 13 -19 -3 -34 1 -34 11 0 6 7 10 16 10 14 0 14 3 4 15 -10 12 -10 15 0
15 9 0 8 7 -4 25 -17 26 -22 60 -7 50 5 -3 13 -1 16 5 4 6 3 10 -2 9 -4 -1
-15 -1 -23 0 -12 1 -12 3 2 11 21 13 17 58 -6 76 -13 9 -14 13 -4 16 10 4 10
8 1 19 -6 8 -11 16 -10 19 4 11 -30 49 -38 42 -4 -4 -5 3 -2 16 4 16 0 26 -14
35 -10 6 -19 20 -19 29 0 10 -4 18 -9 18 -5 0 -12 9 -16 19 -3 11 -19 26 -35
33 -17 7 -30 19 -30 27 0 8 -6 11 -15 7 -8 -3 -15 -1 -15 4 0 6 -5 10 -11 10
-5 0 -8 -4 -4 -9 6 -10 -11 -24 -32 -27 -6 -1 -9 5 -6 13 3 8 12 12 19 9 8 -3
11 0 8 8 -6 14 -36 15 -56 0 -7 -6 -31 -10 -53 -10 -40 1 -65 -15 -78 -47 -8
-22 -27 -22 -27 1 -1 13 -3 12 -14 -6 -12 -22 -14 -23 -29 -7 -10 9 -17 13
-17 8 0 -5 5 -14 12 -21 9 -9 8 -12 -5 -12 -9 0 -17 8 -18 18 0 10 -3 12 -6 4
-2 -6 -10 -9 -16 -5 -7 4 -5 -2 3 -12 14 -17 14 -18 -9 -6 -15 8 -21 9 -17 2
4 -6 0 -14 -9 -18 -10 -3 -21 0 -25 8 -6 9 -11 5 -16 -14 -3 -16 -9 -26 -12
-23 -3 3 -12 0 -20 -7 -13 -10 -14 -9 -8 1 7 12 4 12 -15 1 -13 -7 -25 -10
-26 -8 -1 2 -5 0 -10 -5 -5 -5 -3 -6 5 -2 6 4 12 2 12 -3 0 -6 -7 -11 -15 -11
-9 0 -12 -6 -8 -17 3 -10 3 -15 -1 -11 -4 3 -25 0 -47 -7 -22 -8 -39 -10 -39
-5 0 6 -4 10 -10 10 -5 0 -10 -7 -10 -16 0 -10 -6 -14 -15 -10 -16 6 -39 -26
-27 -40 4 -5 -1 -2 -10 5 -15 11 -21 10 -42 -7 -14 -11 -23 -22 -20 -24 2 -3
-2 -11 -11 -18 -13 -11 -15 -10 -10 6 3 10 -1 6 -9 -11 -8 -16 -15 -25 -16
-19 0 17 -28 25 -36 12 -4 -6 -3 -8 4 -4 6 3 14 1 18 -6 4 -7 4 -10 -1 -6 -4
4 -14 3 -22 -4 -8 -6 -13 -7 -12 -2 4 21 -2 25 -16 10 -18 -18 -20 -30 -2 -20
7 4 9 3 4 -2 -12 -12 -30 -12 -40 1 -6 7 -10 6 -14 -2 -2 -7 -11 -13 -19 -13
-7 0 -19 -9 -26 -19 -10 -16 -15 -18 -27 -8 -10 8 -13 8 -8 1 4 -7 -7 -18 -28
-28 -19 -9 -35 -19 -35 -22 0 -3 5 -2 11 2 7 4 10 1 7 -7 -3 -8 -13 -13 -22
-12 -11 0 -15 -4 -12 -12 3 -9 -2 -12 -15 -10 -11 2 -19 -2 -19 -10 0 -9 -7
-12 -17 -9 -16 5 -17 4 -2 -8 15 -12 15 -15 1 -28 -14 -13 -15 -12 -9 3 9 25
-2 21 -25 -8 -11 -14 -23 -23 -28 -20 -4 2 -20 -7 -34 -20 -15 -14 -32 -23
-37 -20 -5 4 -6 -2 -2 -11 5 -14 3 -16 -11 -11 -10 4 -15 3 -11 -3 3 -6 -1
-13 -9 -16 -9 -3 -16 -12 -16 -19 0 -6 -9 -20 -20 -30 -18 -17 -20 -17 -26 -1
-5 13 -13 16 -31 11 -15 -3 -22 -2 -19 4 4 5 1 13 -5 17 -8 5 -10 2 -5 -7 6
-10 4 -10 -6 1 -7 8 -24 17 -38 18 -14 2 -31 9 -38 14 -7 6 -15 8 -18 5 -3 -3
-18 -1 -33 5 -32 12 -61 19 -81 20 -8 0 -21 5 -28 11 -10 8 -16 7 -21 -2 -6
-9 -11 -8 -21 4 -8 10 -16 12 -20 5 -4 -6 -13 -3 -26 8 -23 22 -99 38 -87 19
5 -9 3 -9 -8 -1 -8 6 -21 12 -29 13 -59 5 -77 8 -88 15 -7 4 -12 2 -12 -4 0
-6 -5 -8 -10 -5 -6 4 -8 10 -6 14 3 4 0 8 -7 9 -7 0 -21 3 -32 5 -11 2 -30 1
-41 -4 -13 -4 -26 -3 -33 4 -16 16 -277 17 -316 2 -17 -7 -40 -9 -51 -4 -11 4
-27 3 -34 -1 -7 -4 -19 -6 -27 -3 -8 3 -13 0 -11 -7 2 -8 -14 -14 -47 -16 -27
-3 -62 -6 -77 -7 -15 -1 -30 -5 -33 -9 -4 -4 -13 -4 -21 -1 -8 3 -25 -2 -39
-11 -14 -9 -25 -14 -25 -11 0 3 -13 -1 -29 -10 -23 -11 -31 -12 -34 -2 -4 9
-7 9 -15 -1 -5 -7 -16 -10 -24 -7 -9 4 -19 1 -23 -4 -3 -6 -11 -9 -16 -5 -5 3
-15 1 -22 -4 -20 -16 -61 -26 -53 -13 4 6 -9 2 -28 -10 -20 -12 -43 -18 -51
-15 -9 3 -15 0 -15 -9 0 -8 -7 -18 -15 -22 -12 -7 -13 -12 -1 -35 12 -23 12
-26 -3 -23 -9 1 -15 10 -13 20 2 11 -1 14 -8 10 -9 -6 -9 -2 -1 13 6 11 16 22
23 25 7 3 3 4 -9 4 -13 -1 -23 -7 -23 -13 0 -7 -8 -11 -17 -9 -10 2 -24 4 -30
4 -7 1 -12 6 -10 13 1 6 -9 17 -23 25 -14 7 -19 13 -10 13 10 0 11 3 4 8 -6 4
-16 16 -23 27 l-13 20 7 -20 c4 -15 -2 -12 -25 13 -17 17 -37 32 -44 32 -8 0
-17 7 -20 16 -4 11 -14 15 -30 12 -21 -4 -24 -2 -20 20 4 20 2 24 -15 19 -14
-3 -18 -1 -14 9 3 8 10 11 16 7 6 -3 7 -1 3 6 -6 9 -11 9 -21 1 -16 -14 -35
-5 -35 16 0 8 -5 14 -11 14 -5 0 -7 5 -4 10 4 6 3 10 -2 9 -20 -3 -34 2 -28
11 3 6 -2 11 -12 12 -10 1 -27 2 -38 3 -11 1 -25 3 -31 4 -7 0 -14 8 -17 15
-4 10 -1 13 9 9 7 -3 14 -9 14 -14 0 -5 5 -9 10 -9 19 0 10 17 -14 28 -17 8
-27 7 -36 -1 -9 -9 -11 -8 -8 8 1 11 -1 20 -7 20 -5 0 -17 5 -25 10 -21 13
-40 15 -40 3 0 -6 6 -8 13 -5 7 3 13 -3 13 -14 0 -16 -2 -16 -16 -4 -14 13
-19 15 -38 15 -5 0 -14 11 -20 25 -6 14 -19 25 -27 25 -9 0 -13 5 -10 10 3 6
1 11 -4 11 -6 1 -16 2 -21 3 -6 0 -15 8 -20 16 -5 8 -12 11 -16 7 -4 -4 -14 3
-22 14 -9 13 -17 17 -21 10 -8 -12 -51 -3 -51 11 0 5 5 6 12 2 7 -5 8 -3 4 5
-6 9 -13 8 -29 -6 -11 -10 -17 -12 -13 -5 4 7 1 12 -8 12 -9 0 -19 12 -22 26
-4 17 -11 23 -21 20 -8 -4 -20 -3 -26 1 -7 4 -16 8 -22 8 -5 0 -10 5 -10 10 0
6 -4 16 -9 24 -7 11 -10 11 -17 0 -6 -10 -11 -11 -16 -3 -5 6 -16 10 -26 8
-14 -2 -16 1 -7 11 8 9 7 14 -4 18 -16 6 -31 -8 -22 -21 2 -4 -4 -8 -14 -8
-16 0 -16 2 -3 23 18 27 7 31 -14 6 -13 -16 -13 -16 -7 7 6 25 6 25 -11 5 -9
-11 -14 -15 -11 -8 4 6 2 15 -4 18 -6 4 -9 1 -8 -5 2 -7 -5 -14 -15 -15 -12
-2 -17 1 -13 10 3 8 1 17 -5 20 -5 4 -6 11 -3 17 4 7 2 8 -4 4 -7 -4 -12 -3
-12 2 0 5 -8 8 -17 7 -26 -3 -53 -16 -49 -24 2 -3 0 -15 -5 -26 -7 -18 -8 -17
-6 5 1 14 6 32 11 40 5 8 6 12 1 8 -4 -4 -13 -3 -20 2 -8 7 -19 3 -33 -11 -23
-20 -32 -13 -10 9 7 7 10 12 8 13 -3 0 -13 2 -22 4 -11 2 -20 -5 -24 -18z
m4326 -28 c0 -5 -4 -9 -8 -9 -5 0 -9 7 -9 15 0 8 4 12 9 9 4 -3 8 -9 8 -15z
m45 -9 c3 -6 -1 -7 -9 -4 -18 7 -21 14 -7 14 6 0 13 -4 16 -10z m-11 -46 c3
-8 2 -12 -4 -9 -6 3 -10 10 -10 16 0 14 7 11 14 -7z m163 -86 c-3 -7 -5 -2 -5
12 0 14 2 19 5 13 2 -7 2 -19 0 -25z m-4617 12 c0 -5 -5 -10 -11 -10 -5 0 -7
5 -4 10 3 6 8 10 11 10 2 0 4 -4 4 -10z m4588 -15 c-3 -3 -9 2 -12 12 -6 14
-5 15 5 6 7 -7 10 -15 7 -18z m-4543 -95 c-3 -5 -1 -10 6 -10 7 0 10 -3 6 -6
-9 -9 -28 6 -22 17 4 5 8 9 11 9 3 0 2 -4 -1 -10z m3995 -40 c0 -5 -5 -10 -11
-10 -5 0 -7 5 -4 10 3 6 8 10 11 10 2 0 4 -4 4 -10z m710 4 c0 -8 -19 -13 -24
-6 -3 5 1 9 9 9 8 0 15 -2 15 -3z m-120 -34 c0 -5 -2 -10 -4 -10 -3 0 -8 5
-11 10 -3 6 -1 10 4 10 6 0 11 -4 11 -10z m-3705 -10 c-3 -5 -12 -10 -18 -10
-7 0 -6 4 3 10 19 12 23 12 15 0z m2717 -37 c-6 -3 -9 -10 -6 -16 4 -7 1 -7
-7 1 -12 11 -12 14 1 22 8 5 17 6 20 3 3 -3 -1 -8 -8 -10z m1090 -55 c-7 -7
-12 -8 -12 -2 0 6 3 14 7 17 3 4 9 5 12 2 2 -3 -1 -11 -7 -17z m-52 8 c0 -2
-7 -7 -16 -10 -8 -3 -12 -2 -9 4 6 10 25 14 25 6z m-4777 -49 c-4 -7 -8 -15
-8 -19 0 -3 -4 -10 -9 -15 -5 -5 -6 -3 -2 5 4 7 2 12 -6 12 -9 0 -9 3 2 10 8
5 11 10 7 10 -5 0 -5 5 -2 10 4 6 11 8 16 4 5 -3 6 -11 2 -17z m4824 -7 c-2
-11 -6 -22 -9 -26 -4 -3 -5 2 -4 13 2 10 -2 21 -8 25 -7 5 -4 8 6 8 12 0 17
-6 15 -20z m19 -54 c-14 -23 -14 -26 0 -41 9 -9 14 -18 11 -21 -3 -3 -14 7
-23 22 -14 20 -15 29 -6 32 6 2 12 10 12 18 0 8 5 14 11 14 7 0 5 -9 -5 -24z
m-1240 -23 c-2 -9 -8 -19 -15 -21 -10 -3 -10 0 -2 17 14 25 20 27 17 4z
m-2335 -16 c-10 -9 -11 -8 -5 6 3 10 9 15 12 12 3 -3 0 -11 -7 -18z m-1301 3
c0 -5 -5 -10 -11 -10 -5 0 -7 5 -4 10 3 6 8 10 11 10 2 0 4 -4 4 -10z m2704
-22 c-3 -4 -11 -5 -19 -1 -21 7 -19 12 4 10 11 0 18 -5 15 -9z m-2685 -55
c-12 -15 -12 -16 3 -10 12 4 15 2 11 -9 -4 -12 -8 -12 -21 -2 -13 11 -15 10
-9 -4 4 -12 2 -15 -8 -12 -12 5 -12 10 3 30 9 13 21 24 26 24 5 0 2 -8 -5 -17z
m151 -3 c-6 -11 -13 -20 -16 -20 -2 0 0 9 6 20 6 11 13 20 16 20 2 0 0 -9 -6
-20z m4544 -1 c-8 -14 -21 -11 -21 5 0 8 6 12 14 9 7 -3 10 -9 7 -14z m-1886
-44 c0 -13 -4 -22 -9 -19 -5 3 -8 16 -7 29 3 31 16 23 16 -10z m-1218 5 c0 -5
-5 -10 -11 -10 -5 0 -7 5 -4 10 3 6 8 10 11 10 2 0 4 -4 4 -10z m1694 2 c18
10 19 9 9 -4 -7 -8 -11 -17 -9 -19 2 -2 -3 -10 -11 -18 -12 -11 -14 -10 -11 5
2 13 -3 19 -14 18 -10 -1 -14 4 -11 13 4 10 9 11 16 4 7 -7 17 -6 31 1z m-214
-8 c0 -8 -19 -13 -24 -6 -3 5 1 9 9 9 8 0 15 -2 15 -3z m-1465 -14 c-3 -5 0
-10 7 -11 10 0 10 -2 0 -6 -6 -2 -9 -10 -6 -16 5 -9 4 -9 -6 0 -12 11 -8 43 5
43 4 0 3 -4 0 -10z m51 -7 c0 -10 5 -17 12 -15 8 1 11 -2 7 -8 -5 -8 -11 -8
-19 -1 -7 6 -16 8 -19 4 -4 -3 -7 -2 -7 3 0 8 20 34 26 34 1 0 1 -8 0 -17z
m1184 7 c0 -5 -2 -10 -4 -10 -3 0 -8 5 -11 10 -3 6 -1 10 4 10 6 0 11 -4 11
-10z m354 -6 c9 -25 2 -26 -17 -4 -13 16 -14 20 -3 20 8 0 17 -7 20 -16z
m-3014 -25 c0 -5 -6 -8 -12 -6 -7 1 -12 -6 -11 -17 0 -10 -3 -14 -7 -10 -5 5
-6 21 -3 37 4 22 8 25 19 16 8 -6 14 -15 14 -20z m4515 19 c5 4 5 1 1 -6 -4
-7 -12 -9 -18 -6 -7 4 -8 -2 -3 -17 7 -22 7 -22 -10 -6 -20 21 -13 56 9 38 7
-6 17 -7 21 -3z m-2755 -7 c0 -12 -20 -25 -27 -18 -7 7 6 27 18 27 5 0 9 -4 9
-9z m970 -6 c0 -8 -4 -15 -9 -15 -13 0 -22 16 -14 24 11 11 23 6 23 -9z m175
5 c3 -5 1 -10 -4 -10 -6 0 -11 5 -11 10 0 6 2 10 4 10 3 0 8 -4 11 -10z m158
-10 c8 -29 -6 -32 -20 -4 -9 19 -8 24 2 24 7 0 15 -9 18 -20z m-3131 3 c-6 -2
-9 -10 -6 -15 4 -7 2 -8 -5 -4 -13 9 -5 26 12 25 9 0 8 -2 -1 -6z m2842 -15
c-3 -5 -12 -4 -20 3 -19 16 -18 18 6 12 11 -3 17 -9 14 -15z m234 -14 c-4 -3
-12 5 -18 18 -12 22 -12 22 6 6 10 -10 15 -20 12 -24z m1542 20 c0 -8 -5 -12
-10 -9 -6 4 -8 11 -5 16 9 14 15 11 15 -7z m-4674 -26 c19 -20 23 -29 12 -25
-10 4 -18 2 -18 -5 0 -7 -4 -7 -13 1 -8 6 -17 8 -20 4 -4 -3 -7 -1 -7 5 0 7 4
12 9 12 6 0 8 9 6 20 -5 26 -4 26 31 -12z m1506 -10 c-9 -9 -12 -7 -12 12 0
19 3 21 12 12 9 -9 9 -15 0 -24z m33 22 c3 -5 1 -10 -4 -10 -6 0 -11 5 -11 10
0 6 2 10 4 10 3 0 8 -4 11 -10z m1685 1 c0 -5 -9 -19 -20 -32 -17 -21 -19 -21
-13 -4 6 18 24 44 31 45 1 0 2 -4 2 -9z m-3179 -19 c-7 -2 -18 1 -23 6 -8 8
-4 9 13 5 13 -4 18 -8 10 -11z m3209 4 c0 -2 -7 -7 -16 -10 -8 -3 -12 -2 -9 4
6 10 25 14 25 6z m-3112 -141 c-3 -3 -9 2 -12 12 -6 14 -5 15 5 6 7 -7 10 -15
7 -18z m-8 -66 c-7 -11 -14 -18 -17 -15 -3 3 0 12 7 21 18 21 23 19 10 -6z
m108 -65 c-4 -3 0 -17 7 -31 16 -30 12 -43 -13 -42 -14 0 -13 2 3 9 18 8 18 9
2 9 -14 1 -17 7 -13 29 5 34 5 32 13 32 3 0 4 -3 1 -6z m4299 -33 c0 -11 -5
-18 -9 -15 -4 3 -5 11 -1 19 7 21 12 19 10 -4z m-4357 -11 c0 -5 -2 -10 -4
-10 -3 0 -8 5 -11 10 -3 6 -1 10 4 10 6 0 11 -4 11 -10z m-25 -80 c3 -5 1 -10
-4 -10 -6 0 -11 5 -11 10 0 6 2 10 4 10 3 0 8 -4 11 -10z m109 -75 c3 -9 0
-15 -9 -15 -9 0 -12 6 -9 15 4 8 7 15 9 15 2 0 5 -7 9 -15z m4200 -10 c-4 -8
-8 -15 -10 -15 -2 0 -4 7 -4 15 0 8 4 15 10 15 5 0 7 -7 4 -15z m-24 -69 c-7
-7 -13 -7 -20 0 -6 6 -3 10 10 10 13 0 16 -4 10 -10z m-4110 -227 c0 -5 -4 -9
-8 -9 -5 0 -9 7 -9 15 0 8 4 12 9 9 4 -3 8 -9 8 -15z m96 -26 c-3 -4 -6 -1 -6
6 0 7 -4 9 -10 6 -6 -4 -7 1 -3 11 6 15 7 15 15 -1 6 -9 7 -19 4 -22z m3859
-158 c-2 -15 4 -29 13 -36 15 -9 15 -10 -1 -5 -10 3 -26 6 -35 6 -15 0 -15 2
-2 10 8 5 11 10 7 10 -7 0 10 40 17 40 2 0 2 -11 1 -25z m-3847 6 c11 -7 10
-9 -3 -14 -9 -4 -14 -3 -10 2 3 5 -1 12 -7 14 -7 3 -8 6 -3 6 6 0 16 -3 23 -8z
m82 -37 c0 -2 -9 0 -20 6 -11 6 -20 13 -20 16 0 2 9 0 20 -6 11 -6 20 -13 20
-16z m-70 6 c0 -5 -8 -10 -17 -10 -15 0 -16 2 -3 10 19 12 20 12 20 0z m3748
-85 c-15 -7 -23 -6 -26 3 -2 7 -9 9 -15 6 -8 -5 -9 -4 -2 4 15 15 49 20 57 7
4 -5 -2 -14 -14 -20z"/>
<path d="M173 3475 c0 -8 4 -15 9 -15 4 0 8 4 8 9 0 6 -4 12 -8 15 -5 3 -9 -1
-9 -9z"/>
<path d="M365 4060 c-3 -5 -1 -10 4 -10 6 0 11 5 11 10 0 6 -2 10 -4 10 -3 0
-8 -4 -11 -10z"/>
<path d="M4743 4013 c-17 -6 -17 -20 0 -20 8 0 14 6 14 14 0 7 -1 13 -1 12 -1
0 -7 -3 -13 -6z"/>
<path d="M350 4000 c0 -5 7 -7 15 -4 8 4 15 8 15 10 0 2 -7 4 -15 4 -8 0 -15
-4 -15 -10z"/>
<path d="M360 3976 c0 -2 7 -9 15 -16 9 -7 15 -8 15 -2 0 5 -7 12 -15 16 -8 3
-15 4 -15 2z"/>
<path d="M347 3931 c-5 -19 19 -38 31 -26 3 3 0 5 -7 5 -7 0 -11 7 -8 15 4 8
2 17 -2 20 -5 2 -11 -4 -14 -14z"/>
<path d="M830 3929 c0 -5 5 -7 10 -4 6 3 10 8 10 11 0 2 -4 4 -10 4 -5 0 -10
-5 -10 -11z"/>
<path d="M4110 3875 c-7 -9 -8 -15 -2 -15 5 0 12 7 16 15 3 8 4 15 2 15 -2 0
-9 -7 -16 -15z"/>
<path d="M950 3870 c0 -6 4 -9 9 -6 5 4 12 1 14 -4 3 -6 4 -5 3 2 -3 15 -26
23 -26 8z"/>
<path d="M4761 3818 c-16 -26 -11 -30 11 -7 10 10 14 20 10 23 -5 3 -14 -4
-21 -16z"/>
<path d="M3630 3720 c-9 -6 -10 -10 -3 -10 6 0 15 5 18 10 8 12 4 12 -15 0z"/>
<path d="M5020 3700 c0 -5 5 -10 11 -10 5 0 7 5 4 10 -3 6 -8 10 -11 10 -2 0
-4 -4 -4 -10z"/>
<path d="M4731 3674 c0 -11 3 -14 6 -6 3 7 2 16 -1 19 -3 4 -6 -2 -5 -13z"/>
<path d="M331 3672 c-1 -7 -5 -10 -11 -7 -5 3 -10 1 -10 -5 0 -5 13 -9 29 -8
16 1 27 6 25 10 -3 5 -9 6 -14 3 -4 -3 -11 1 -13 7 -4 10 -6 10 -6 0z"/>
<path d="M4774 3649 c-4 -7 -3 -9 4 -5 5 3 13 0 15 -6 4 -9 6 -10 6 -1 1 17
-16 25 -25 12z"/>
<path d="M2830 3586 c0 -2 7 -7 16 -10 8 -3 12 -2 9 4 -6 10 -25 14 -25 6z"/>
<path d="M2430 3573 c0 -14 31 -46 37 -39 3 3 -4 15 -16 27 -12 13 -21 18 -21
12z"/>
<path d="M2360 3566 c0 -9 30 -14 35 -6 4 6 -3 10 -14 10 -12 0 -21 -2 -21 -4z"/>
<path d="M2223 3529 c0 -22 4 -26 28 -27 26 -1 28 1 18 19 -6 12 -17 18 -24
15 -8 -3 -16 0 -18 7 -2 7 -4 0 -4 -14z"/>
<path d="M4955 3500 c-3 -5 -1 -10 4 -10 6 0 11 5 11 10 0 6 -2 10 -4 10 -3 0
-8 -4 -11 -10z"/>
<path d="M359 3484 c-12 -14 -11 -16 5 -13 11 2 21 10 24 17 5 17 -13 15 -29
-4z"/>
<path d="M2034 3464 c-18 -14 -18 -15 4 -4 12 6 22 13 22 15 0 8 -5 6 -26 -11z"/>
<path d="M3057 3469 c7 -7 15 -10 18 -7 3 3 -2 9 -12 12 -14 6 -15 5 -6 -5z"/>
<path d="M1813 3450 c-1 -11 2 -20 5 -20 4 0 8 9 9 20 1 11 -2 20 -5 20 -4 0
-8 -9 -9 -20z"/>
<path d="M3336 3445 c4 -8 10 -12 15 -9 14 8 10 24 -6 24 -9 0 -12 -6 -9 -15z"/>
<path d="M3270 3440 c0 -5 7 -10 15 -10 8 0 15 5 15 10 0 6 -7 10 -15 10 -8 0
-15 -4 -15 -10z"/>
<path d="M173 3407 c0 -8 6 -14 14 -14 9 0 10 4 2 14 -6 7 -12 13 -14 13 -1 0
-2 -6 -2 -13z"/>
<path d="M256 3235 c-3 -8 -1 -15 4 -15 6 0 10 7 10 15 0 8 -2 15 -4 15 -2 0
-6 -7 -10 -15z"/>
<path d="M270 3192 c0 -7 -5 -10 -12 -6 -7 4 -8 3 -4 -4 4 -7 14 -12 22 -12 8
0 13 -4 10 -8 -2 -4 -1 -14 3 -21 6 -9 11 -10 15 -2 4 6 2 11 -4 11 -6 0 -9 4
-6 9 3 4 -1 17 -9 27 -9 12 -14 14 -15 6z"/>
<path d="M4775 3140 c-3 -5 1 -10 10 -10 9 0 13 5 10 10 -3 6 -8 10 -10 10 -2
0 -7 -4 -10 -10z"/>
<path d="M285 3109 c-4 -6 -4 -13 -1 -16 3 -4 6 -1 6 7 0 10 4 10 18 -1 15
-13 16 -12 3 4 -16 20 -18 20 -26 6z"/>
<path d="M647 3054 c-2 -13 0 -21 5 -18 5 3 7 -6 4 -21 -4 -22 -2 -25 9 -15
10 9 11 18 4 37 -8 23 -8 24 6 13 8 -7 12 -16 10 -21 -3 -4 3 -12 12 -18 11
-6 13 -11 5 -11 -7 0 -11 -4 -7 -9 3 -5 0 -13 -6 -17 -8 -4 -9 -3 -5 4 4 7 1
12 -8 12 -9 0 -16 -6 -16 -12 0 -9 -4 -8 -10 2 -5 8 -10 11 -10 6 0 -5 -8 -2
-17 5 -11 10 -14 10 -9 2 4 -8 2 -13 -6 -13 -9 0 -9 -3 2 -10 10 -6 11 -10 3
-10 -7 0 -13 -4 -13 -10 0 -5 7 -7 15 -4 9 4 15 0 15 -10 0 -9 5 -16 11 -16 5
0 7 5 3 12 -4 7 -3 8 4 4 7 -4 12 -14 12 -22 0 -14 12 -18 39 -15 7 2 10 -2 6
-8 -4 -7 0 -8 11 -4 13 5 15 3 10 -8 -4 -8 2 -3 13 9 11 13 26 22 33 20 8 -3
4 -12 -10 -26 -22 -22 -16 -37 11 -26 8 3 17 -2 20 -10 7 -18 64 -19 71 -1 2
7 16 13 29 13 20 0 25 -5 21 -21 -2 -11 -9 -24 -15 -27 -7 -5 -5 -9 6 -13 9
-4 13 -3 10 3 -3 6 -2 10 3 10 5 0 13 10 17 23 l8 22 4 -22 c2 -13 9 -23 14
-23 14 0 11 -17 -5 -23 -10 -4 -13 -1 -9 9 3 7 1 14 -5 14 -5 0 -12 -9 -15
-19 -3 -13 0 -18 12 -16 9 1 22 -5 29 -14 11 -14 11 -14 5 3 -5 14 -3 17 6 11
10 -6 11 -2 7 16 -7 23 -6 23 6 4 15 -25 19 -47 7 -39 -10 6 -12 -7 -3 -30 3
-9 10 -13 15 -10 5 3 7 10 4 15 -4 5 -1 9 5 9 7 0 9 -8 5 -19 -4 -15 1 -20 27
-26 18 -5 39 -8 46 -8 15 1 15 -3 2 -27 -7 -14 -6 -17 8 -16 9 0 20 8 24 16 5
11 7 9 7 -7 1 -23 16 -37 41 -38 8 0 14 -6 12 -12 -1 -8 8 -13 20 -13 19 0 20
-2 8 -10 -11 -7 -11 -10 -2 -10 7 0 26 -10 41 -21 16 -12 34 -18 41 -14 9 6 9
2 1 -14 -12 -21 -5 -27 14 -13 15 11 18 42 4 42 -7 0 -4 7 7 16 13 10 14 14 4
11 -11 -3 -16 3 -18 19 -1 17 2 22 13 18 8 -4 15 -11 15 -16 0 -6 7 -8 15 -4
22 8 19 -11 -4 -23 -18 -10 -21 -46 -5 -72 5 -8 3 -9 -5 -4 -9 5 -9 1 1 -14 7
-12 19 -21 27 -21 11 0 11 3 0 18 -12 15 -12 16 2 5 9 -7 20 -10 25 -6 5 4 3
1 -3 -7 -18 -19 -16 -33 2 -26 13 5 20 -5 16 -26 0 -5 6 -8 15 -8 8 0 13 4 10
9 -4 5 5 4 19 -2 14 -7 25 -18 25 -25 0 -8 5 -10 12 -6 7 5 9 2 6 -7 -4 -11 2
-16 24 -17 16 -1 27 1 25 5 -3 5 1 16 8 26 11 16 13 16 19 2 3 -9 2 -14 -3
-11 -12 8 -21 -30 -9 -42 6 -6 5 -12 -3 -17 -8 -6 -10 -4 -4 5 5 9 4 11 -3 6
-7 -4 -12 -3 -12 1 0 5 -9 9 -19 9 -11 0 -17 -4 -15 -8 3 -4 12 -8 20 -8 8 0
17 -7 20 -15 4 -8 10 -13 14 -10 4 3 14 -2 21 -11 11 -13 15 -12 36 12 27 32
29 25 6 -19 -15 -30 -15 -31 1 -18 14 12 16 12 10 -3 -10 -25 13 -19 47 13 18
18 26 32 19 36 -5 3 -8 18 -6 33 l5 27 -18 -22 c-10 -12 -21 -20 -24 -17 -6 7
24 39 44 47 8 3 9 6 2 6 -6 1 -21 17 -33 35 -11 19 -30 38 -41 41 -10 4 -16
11 -13 17 8 12 -51 68 -72 68 -8 0 -13 4 -9 9 7 13 -52 74 -64 66 -5 -3 -13 0
-17 6 -5 8 -3 9 6 4 8 -5 11 -4 6 3 -4 6 -12 9 -19 6 -7 -2 -17 9 -24 26 -6
16 -20 33 -30 37 -10 4 -26 15 -35 26 -12 14 -18 16 -18 6 0 -8 -7 -4 -16 9
-9 13 -20 19 -27 15 -7 -4 -5 2 3 12 14 17 13 18 -2 12 -10 -3 -17 -3 -17 1 3
19 -2 23 -16 12 -13 -11 -14 -10 -9 4 3 9 1 16 -4 16 -6 0 -26 14 -44 30 -18
17 -34 26 -36 20 -2 -6 -20 6 -39 25 -20 20 -41 34 -47 32 -6 -2 -19 5 -28 16
-10 11 -31 20 -47 21 -16 1 -27 4 -25 7 4 7 -50 32 -62 29 -4 -1 -11 5 -16 14
-7 12 -14 14 -28 6 -15 -8 -20 -6 -25 10 -3 11 -11 21 -16 21 -12 2 -21 5 -39
12 -31 13 -55 12 -52 -1 1 -8 -2 -11 -8 -7 -6 3 -8 11 -5 16 4 5 1 9 -4 9 -6
0 -11 -6 -11 -12 0 -9 -2 -10 -8 -2 -4 7 -19 12 -34 12 -19 0 -27 -6 -31 -24z
m213 -174 c0 -5 -2 -10 -4 -10 -3 0 -8 5 -11 10 -3 6 -1 10 4 10 6 0 11 -4 11
-10z m34 2 c3 -5 -1 -9 -9 -9 -8 0 -15 4 -15 9 0 4 4 8 9 8 6 0 12 -4 15 -8z
m156 -42 c0 -5 -5 -10 -11 -10 -5 0 -7 5 -4 10 3 6 8 10 11 10 2 0 4 -4 4 -10z
m5 -100 c-3 -5 1 -10 9 -10 17 0 22 -15 7 -24 -12 -8 -34 21 -26 34 3 5 8 10
11 10 3 0 2 -4 -1 -10z m110 -19 c3 -5 0 -13 -6 -17 -7 -4 -9 -3 -5 4 3 5 0
13 -6 15 -9 4 -10 6 -1 6 6 1 14 -3 18 -8z m25 -30 c0 -6 -5 -13 -10 -16 -6
-4 -8 -16 -5 -28 5 -20 5 -20 -5 -4 -8 13 -9 22 -1 31 6 7 8 16 4 19 -3 4 -1
7 5 7 7 0 12 -4 12 -9z m230 -36 c0 -5 -5 -3 -10 5 -5 8 -10 20 -10 25 0 6 5
3 10 -5 5 -8 10 -19 10 -25z m-198 -37 c-9 -9 -15 -9 -24 1 -11 11 -10 13 5 8
21 -8 23 11 2 19 -8 4 -15 11 -15 17 0 6 10 1 22 -11 17 -17 20 -24 10 -34z
m188 17 c11 -13 10 -14 -4 -9 -9 3 -16 10 -16 15 0 13 6 11 20 -6z m-135 -15
c-3 -5 -12 -10 -18 -10 -7 0 -6 4 3 10 19 12 23 12 15 0z m25 -61 c0 -5 -8 -9
-17 -8 -12 0 -13 2 -5 6 10 4 10 8 0 21 -12 15 -11 16 5 3 9 -7 17 -17 17 -22z
m203 -96 c-3 -7 -6 -13 -8 -13 -2 0 -5 6 -8 13 -3 8 1 14 8 14 7 0 11 -6 8
-14z m127 -94 c0 -5 -6 -8 -12 -6 -7 1 -12 -4 -10 -11 1 -8 -2 -11 -8 -7 -5 3
-10 2 -10 -4 0 -5 5 -11 12 -13 8 -3 8 -9 1 -22 -9 -16 -11 -16 -22 -2 -10 11
-10 16 -2 16 8 0 9 5 1 19 -12 24 -13 42 -1 22 7 -11 11 -10 22 7 13 20 29 21
29 1z"/>
<path d="M4355 3075 c-5 -2 -29 -9 -52 -15 -23 -6 -48 -16 -55 -24 -8 -7 -31
-19 -53 -26 -61 -20 -142 -59 -155 -75 -7 -8 -16 -13 -20 -10 -4 2 -16 -3 -26
-13 -11 -9 -35 -26 -54 -36 -19 -11 -44 -28 -54 -38 -11 -10 -26 -18 -33 -18
-8 0 -11 -4 -8 -10 3 -5 -3 -10 -14 -10 -19 0 -26 -10 -22 -32 0 -5 -5 -8 -13
-8 -8 0 -17 -7 -20 -16 -4 -9 -9 -14 -13 -11 -3 4 -19 -3 -35 -15 -22 -15 -29
-27 -26 -43 4 -18 0 -22 -21 -21 -17 0 -25 -4 -23 -13 2 -8 -3 -11 -13 -8 -8
4 -15 3 -15 -2 0 -5 -15 -19 -34 -31 -24 -17 -32 -29 -28 -43 4 -14 1 -18 -7
-13 -11 7 -28 -7 -97 -85 -12 -13 -22 -28 -22 -33 0 -5 -6 -12 -13 -17 -7 -4
-13 -27 -14 -51 0 -31 -4 -42 -14 -40 -11 2 -12 0 -3 -11 7 -8 8 -18 4 -22 -4
-5 -1 -5 6 -1 7 5 19 -1 30 -14 14 -18 21 -19 42 -10 23 10 24 10 2 6 -19 -4
-21 -2 -11 10 6 8 23 14 38 14 18 0 22 3 12 9 -7 5 -23 6 -35 3 -12 -3 -17 -1
-13 4 5 5 14 9 20 9 7 1 11 7 9 15 -3 11 -1 11 13 0 24 -20 42 -21 57 -2 11
15 11 15 -3 4 -14 -10 -18 -10 -23 3 -3 9 -11 13 -17 9 -8 -4 -8 0 0 15 7 11
19 21 27 21 8 0 12 -5 9 -10 -4 -6 -11 -8 -16 -5 -5 4 -9 1 -9 -4 0 -15 40 -8
50 8 5 10 9 10 14 2 11 -16 26 -3 19 15 -5 13 -1 15 15 9 14 -4 22 -2 22 5 0
6 -4 8 -10 5 -6 -3 -7 1 -4 9 3 9 10 14 14 11 5 -3 13 3 19 12 6 10 11 13 11
8 0 -6 -5 -16 -12 -23 -9 -9 -9 -12 0 -12 6 0 16 8 21 18 6 9 11 13 11 8 0
-15 50 36 50 51 0 8 5 11 10 8 6 -3 10 -1 10 4 0 6 -6 11 -12 11 -9 0 -8 4 2
10 8 5 11 10 5 10 -5 0 -2 5 8 11 9 6 14 15 11 21 -4 6 -2 8 4 4 6 -3 16 2 22
11 10 17 10 17 8 -2 -3 -21 13 -24 45 -10 14 6 15 10 5 23 -11 13 -10 14 10 3
19 -10 22 -9 22 8 0 14 -6 19 -18 16 -11 -2 -19 3 -19 10 0 8 5 11 11 7 6 -3
19 -5 29 -4 10 2 17 -3 17 -14 0 -12 6 -9 22 12 30 40 40 51 36 39 -2 -5 2
-11 7 -12 6 -2 10 3 10 9 0 13 65 49 76 43 3 -2 11 5 19 15 8 10 18 16 23 13
5 -3 1 6 -8 21 -10 14 -13 26 -9 26 5 0 0 7 -10 15 -11 8 -15 15 -9 15 7 0 15
-5 18 -10 4 -6 12 -7 18 -3 9 5 9 3 1 -8 -9 -11 -9 -17 1 -26 13 -12 25 -7 25
9 0 5 -5 6 -11 2 -8 -5 -8 -1 0 13 6 11 7 24 3 28 -4 5 -1 5 6 1 7 -5 11 -14
8 -22 -3 -8 1 -14 9 -14 9 0 12 6 9 15 -4 9 0 15 9 15 11 0 14 7 11 24 -3 17
1 25 16 29 18 5 18 3 4 -18 -14 -22 -14 -24 5 -34 25 -14 31 -14 31 0 0 5 -4
8 -9 4 -5 -3 -12 -1 -16 5 -3 5 -1 10 5 10 6 0 8 6 4 13 -4 6 2 4 13 -5 22
-20 43 -24 43 -8 0 6 7 10 15 10 14 0 19 11 16 35 -1 6 5 2 12 -7 9 -11 18
-14 28 -7 12 8 6 13 -13 11 -11 -2 -18 27 -8 33 6 4 10 1 10 -6 0 -7 10 -9 25
-7 22 5 23 3 13 -10 -12 -13 -10 -14 9 -2 15 10 19 18 13 25 -7 8 -5 12 5 12
8 0 15 -4 15 -9 0 -5 5 -6 11 -3 6 4 8 14 4 22 -4 13 -3 13 8 4 11 -8 17 -7
29 7 28 32 29 41 7 52 -12 7 -19 8 -15 2 3 -5 -1 -12 -9 -16 -8 -3 -17 0 -21
6 -5 7 -2 8 5 3 10 -6 11 -3 2 13 -14 27 -14 35 2 25 18 -11 38 -13 31 -2 -3
5 -11 9 -18 9 -8 0 -13 10 -12 22 1 19 -5 23 -34 25 -25 2 -31 0 -20 -7 12 -7
10 -9 -7 -7 -12 0 -19 5 -17 9 5 8 -3 9 -21 3z m90 -35 c-3 -5 -11 -10 -16
-10 -6 0 -7 5 -4 10 3 6 11 10 16 10 6 0 7 -4 4 -10z m-11 -29 c8 -12 -3 -41
-15 -41 -5 0 -8 11 -7 25 2 25 12 32 22 16z m-177 -138 c-3 -2 -14 0 -24 7
-16 10 -16 11 0 6 9 -3 17 0 18 7 0 8 2 8 6 -1 3 -7 3 -16 0 -19z m-190 -33
c1 -11 -2 -20 -7 -20 -6 0 -7 17 -1 38 3 8 7 -1 8 -18z m106 -23 c-3 -5 -9 -3
-14 4 -4 7 -5 17 -2 22 3 5 9 3 14 -4 4 -7 5 -17 2 -22z m-119 -76 c-2 -3 -12
3 -22 13 -16 17 -16 18 5 5 12 -7 20 -15 17 -18z m-69 0 c3 -5 2 -12 -3 -15
-5 -3 -9 1 -9 9 0 17 3 19 12 6z m111 -8 c-2 -2 -6 -3 -8 -1 -2 2 -16 -5 -31
-15 -15 -9 -27 -15 -27 -12 0 3 -1 8 -2 12 -2 3 5 7 16 9 10 1 23 7 29 13 6 6
14 8 19 5 5 -3 7 -8 4 -11z m-138 -18 c-3 -3 -9 2 -12 12 -6 14 -5 15 5 6 7
-7 10 -15 7 -18z m-18 -34 c-6 -12 -5 -22 3 -31 10 -12 9 -12 -4 -2 -9 6 -19
9 -22 5 -4 -3 -7 -1 -7 5 0 7 5 12 10 12 6 0 10 9 10 21 0 11 5 17 10 14 7 -4
7 -13 0 -24z m-86 -59 c3 -5 -1 -9 -9 -9 -8 0 -12 4 -9 9 3 4 7 8 9 8 2 0 6
-4 9 -8z m-64 -22 c-6 -4 -11 -11 -10 -16 0 -5 -8 -10 -19 -12 -15 -2 -19 2
-18 17 0 11 5 17 9 15 5 -3 5 -10 2 -16 -5 -7 -2 -8 5 -4 7 5 10 14 7 21 -3 9
2 11 16 7 13 -3 16 -7 8 -12z m-70 -125 c0 -12 -19 -12 -23 0 -4 9 -1 12 9 8
7 -3 14 -7 14 -8z m-117 -68 c4 3 7 1 7 -5 0 -6 -8 -10 -18 -9 -10 0 -19 7
-19 14 0 9 4 10 12 3 7 -5 15 -7 18 -3z m-100 -31 c12 -9 14 -16 8 -21 -6 -3
-11 0 -11 7 0 10 -3 9 -11 -2 -9 -13 -10 -13 -6 2 3 9 1 19 -6 22 -7 2 -7 5
-2 5 6 0 18 -6 28 -13z"/>
<path d="M626 3017 c3 -10 9 -15 12 -12 3 3 0 11 -7 18 -10 9 -11 8 -5 -6z"/>
<path d="M406 2927 c3 -10 9 -15 12 -12 3 3 0 11 -7 18 -10 9 -11 8 -5 -6z"/>
<path d="M863 2827 c-9 -18 -8 -24 2 -24 8 0 11 7 7 15 -4 11 -1 14 11 9 9 -3
19 -2 22 2 3 5 -2 12 -11 15 -21 8 -19 9 -31 -17z"/>
<path d="M4515 2560 c-3 -5 -1 -10 4 -10 6 0 11 5 11 10 0 6 -2 10 -4 10 -3 0
-8 -4 -11 -10z"/>
<path d="M3797 2539 c-18 -25 -14 -39 11 -38 11 0 12 3 5 6 -7 2 -13 9 -13 14
0 6 4 8 9 4 14 -8 25 15 13 27 -6 6 -15 2 -25 -13z"/>
<path d="M2737 2524 c-4 -4 -105 -7 -226 -8 -121 -1 -223 -5 -227 -9 -4 -4
-13 -2 -20 4 -9 7 -25 6 -55 -4 -27 -9 -37 -17 -28 -21 8 -3 4 -4 -8 -2 -13 2
-26 0 -29 -5 -3 -5 -10 -6 -16 -3 -7 4 -8 2 -4 -4 7 -11 -13 -17 -38 -13 -5 1
-6 -5 -3 -14 4 -10 0 -15 -12 -15 -11 0 -30 -19 -47 -45 -15 -25 -32 -45 -37
-45 -5 0 -4 -6 2 -14 10 -11 8 -17 -6 -25 -10 -6 -12 -11 -5 -11 6 0 12 -5 12
-11 0 -5 -4 -8 -9 -4 -5 3 -3 -8 5 -25 9 -16 19 -32 25 -35 5 -4 9 -15 9 -26
0 -11 5 -17 10 -14 6 3 13 -1 16 -9 3 -9 12 -16 19 -16 7 0 18 -7 25 -15 7 -9
15 -13 18 -10 3 3 12 -1 20 -8 9 -6 13 -7 9 -1 -3 6 0 11 7 11 8 0 12 -9 10
-21 -3 -12 -1 -15 2 -8 4 9 9 10 19 2 10 -8 15 -8 21 1 4 8 3 9 -4 5 -8 -5
-10 -1 -5 10 6 16 8 15 16 -4 12 -26 60 -45 76 -29 8 8 11 8 11 -1 0 -7 8 -12
18 -12 15 0 15 2 2 11 -12 9 -12 10 3 5 10 -3 21 -6 23 -6 3 0 3 -4 0 -8 -3
-5 1 -9 9 -9 8 0 11 5 8 11 -4 6 0 5 8 -1 15 -12 51 -14 209 -13 132 2 175 5
189 14 9 6 12 5 8 -2 -5 -6 0 -8 13 -5 11 3 20 8 20 12 0 4 9 7 20 8 11 1 18
-2 15 -7 -6 -10 36 0 53 13 6 5 12 6 12 3 0 -4 9 -2 20 4 15 8 20 8 20 -2 0
-9 3 -9 9 2 6 8 8 17 6 20 -2 4 2 7 10 7 8 0 11 -5 8 -11 -4 -6 1 -5 10 3 9 7
17 10 17 7 0 -4 7 -1 15 6 37 33 50 43 60 43 5 0 9 9 7 19 -2 11 1 15 7 11 6
-3 11 0 11 9 0 8 5 16 10 18 6 2 12 20 14 41 2 20 0 34 -5 31 -5 -3 -9 2 -9
10 0 9 4 16 9 16 5 0 -4 14 -19 31 -16 16 -32 39 -35 50 -4 10 -15 19 -27 19
-14 0 -18 5 -14 16 3 8 2 12 -4 9 -6 -3 -10 -1 -10 5 0 7 -7 10 -15 6 -8 -3
-21 1 -29 9 -18 18 -30 20 -20 3 5 -7 -3 -5 -16 5 -52 36 -101 45 -83 14 3 -7
-2 -4 -13 5 -14 13 -31 16 -58 13 -23 -3 -35 -1 -31 5 7 11 2 13 -8 4z m246
-269 c-3 -9 -8 -14 -10 -11 -3 3 -2 9 2 15 9 16 15 13 8 -4z m-69 -130 c3 -8
1 -15 -4 -15 -6 0 -10 7 -10 15 0 8 2 15 4 15 2 0 6 -7 10 -15z"/>
<path d="M710 2420 c-9 -6 -10 -10 -3 -10 6 0 15 5 18 10 8 12 4 12 -15 0z"/>
<path d="M1328 2239 c-6 -4 -22 -5 -36 -3 -13 3 -30 0 -38 -7 -8 -6 -14 -8
-14 -3 0 5 -5 2 -10 -6 -6 -10 -10 -11 -10 -3 0 9 -10 11 -32 7 -18 -3 -46 -7
-63 -9 -16 -2 -31 -4 -32 -5 -2 -2 -6 -3 -10 -4 -5 -1 -14 -5 -20 -9 -8 -5
-13 -4 -13 2 0 11 -31 3 -41 -11 -3 -4 -18 -9 -35 -10 -16 -1 -35 -8 -43 -16
-7 -7 -21 -10 -31 -7 -18 6 -70 -13 -70 -25 0 -4 -11 -6 -25 -4 -17 1 -30 -4
-38 -17 -6 -10 -22 -19 -35 -19 -13 0 -30 -7 -38 -15 -9 -8 -24 -15 -35 -15
-10 0 -19 -5 -19 -11 0 -8 -4 -8 -14 0 -11 9 -15 8 -20 -4 -3 -9 -10 -14 -15
-11 -5 3 -7 -2 -4 -13 4 -15 0 -18 -21 -14 -15 3 -26 1 -26 -5 0 -6 -10 -12
-22 -14 -13 -2 -23 -10 -23 -18 -1 -8 -6 -14 -13 -13 -7 2 -11 0 -11 -5 1 -4
0 -9 -1 -12 -2 -6 -6 -24 -14 -56 -4 -18 0 -21 34 -20 21 0 38 5 37 11 -1 5 9
9 22 7 14 -1 28 2 31 8 4 6 16 12 27 13 14 1 19 6 15 16 -3 9 -1 12 7 7 6 -4
19 -2 28 6 12 9 15 9 9 1 -5 -9 -2 -11 9 -7 11 5 13 10 5 19 -8 10 -8 15 1 21
8 4 9 3 5 -5 -9 -14 51 -9 94 7 27 10 34 12 51 12 5 0 7 6 3 13 -5 7 0 6 11
-3 10 -8 16 -10 12 -4 -6 10 16 25 55 38 9 2 19 0 22 -7 2 -7 5 -4 5 5 1 11 6
15 16 12 9 -4 15 0 15 10 0 10 6 13 16 9 20 -8 124 17 124 30 0 5 9 7 20 4 11
-3 23 -1 26 5 4 6 9 6 14 -2 6 -10 12 -7 26 8 14 17 25 20 57 15 29 -4 38 -2
32 7 -6 9 -2 9 15 0 13 -7 20 -8 16 -2 -3 6 -2 13 4 17 5 3 10 1 10 -5 0 -6 4
-9 9 -5 5 3 28 7 51 9 44 4 60 14 63 37 2 8 6 19 9 24 4 6 4 16 0 22 -12 19
-112 35 -134 22z m-538 -129 c0 -5 -5 -10 -11 -10 -5 0 -7 5 -4 10 3 6 8 10
11 10 2 0 4 -4 4 -10z"/>
<path d="M3700 2237 c-56 -11 -67 -21 -49 -43 8 -10 9 -15 2 -11 -21 13 -20
-8 2 -28 12 -11 32 -20 46 -20 13 0 36 -3 52 -7 16 -4 27 -2 27 3 0 6 7 4 15
-5 9 -9 28 -13 50 -11 24 2 33 0 28 -8 -4 -7 2 -5 13 3 10 8 16 10 12 6 -10
-12 24 -36 37 -28 16 10 49 8 60 -4 17 -18 65 -35 65 -23 0 6 7 3 16 -6 13
-12 19 -13 24 -5 6 9 9 9 13 -1 4 -9 6 -10 6 -2 1 7 8 10 16 7 8 -4 13 -10 10
-14 -7 -12 33 -25 83 -28 15 -1 21 -6 16 -14 -5 -7 -2 -9 9 -5 8 3 21 -1 27
-9 7 -8 23 -14 36 -14 12 0 25 -4 28 -9 4 -5 18 -8 33 -6 35 4 55 -4 46 -18
-4 -6 0 -8 10 -4 9 3 16 2 14 -2 -1 -5 3 -9 8 -9 6 0 9 5 7 12 -1 6 6 2 15 -9
18 -20 48 -38 68 -40 6 0 16 -4 24 -9 10 -7 12 -6 6 4 -5 8 1 7 16 -3 29 -21
55 -22 63 -2 3 8 0 15 -6 15 -6 0 -8 3 -5 6 4 4 -5 29 -20 56 -18 32 -29 44
-34 36 -6 -9 -10 -8 -14 4 -4 11 -17 16 -36 16 -16 -1 -32 2 -36 5 -3 4 2 7
13 7 16 0 15 2 -6 17 -14 10 -33 16 -42 15 -10 -2 -18 2 -18 8 0 6 -4 9 -9 5
-5 -3 -16 1 -24 9 -8 8 -26 13 -41 12 -22 -3 -24 -1 -14 11 6 8 7 13 2 12 -28
-5 -55 2 -48 14 4 6 4 9 -1 5 -4 -4 -24 1 -44 11 -20 9 -43 17 -51 16 -8 -1
-21 4 -29 9 -12 9 -13 8 -6 -4 6 -10 1 -9 -12 3 -18 16 -25 17 -45 6 -22 -12
-22 -11 -8 6 10 12 10 16 2 11 -7 -4 -20 -2 -28 5 -8 6 -17 9 -21 6 -3 -4 -13
-1 -21 6 -13 9 -14 9 -8 0 4 -7 2 -13 -3 -13 -6 0 -11 4 -11 9 0 13 -49 20
-53 7 -3 -7 -9 -6 -18 3 -12 12 -12 13 0 6 8 -5 12 -4 8 2 -3 5 -31 8 -61 7
-40 -2 -56 2 -60 13 -4 9 -11 11 -18 6 -17 -10 -27 -10 -58 -3 -14 4 -45 2
-70 -3z"/>
<path d="M1580 1963 c0 -6 -13 -16 -29 -21 -16 -6 -37 -24 -47 -41 -10 -17
-24 -32 -31 -32 -7 -1 -18 -2 -24 -3 -6 0 -17 -9 -24 -19 -7 -10 -15 -18 -17
-17 -9 5 -57 -24 -52 -31 5 -8 -9 -13 -28 -10 -4 0 -10 -8 -13 -19 -3 -10 -15
-22 -26 -25 -10 -4 -16 -11 -13 -17 4 -7 2 -8 -4 -4 -16 9 -52 -15 -52 -35 0
-10 -11 -20 -25 -23 -14 -4 -23 -11 -20 -16 7 -11 -35 -41 -47 -34 -11 7 -54
-36 -50 -48 2 -8 -14 -12 -31 -9 -5 1 -6 -3 -2 -8 3 -6 0 -19 -7 -30 -10 -16
-15 -18 -27 -8 -12 9 -13 9 -7 -1 5 -8 -3 -23 -21 -40 -39 -37 -73 -87 -73
-107 0 -9 -4 -14 -8 -11 -5 3 -9 -1 -9 -9 0 -8 4 -15 9 -15 4 0 8 -7 8 -15 0
-8 6 -15 13 -15 16 1 48 26 41 33 -3 3 10 11 30 18 19 7 33 16 30 21 -3 4 0 9
5 9 22 3 27 5 48 20 13 9 20 19 17 22 -4 4 1 9 10 13 9 3 16 12 16 20 0 8 3
13 8 13 18 -3 45 2 39 7 -7 7 100 114 114 114 5 0 9 4 9 9 0 5 10 11 22 14 12
4 19 9 16 13 -10 10 15 32 30 26 8 -2 16 4 19 17 3 11 9 18 14 15 5 -3 8 0 7
8 -2 7 3 12 9 11 7 -2 12 2 10 8 -1 6 13 19 31 29 19 10 37 22 40 26 4 4 0 4
-8 -1 -10 -5 -12 -5 -5 3 6 6 16 12 24 14 17 4 61 46 61 58 0 6 9 19 20 30 29
29 36 68 16 88 -9 9 -16 11 -16 5z"/>
<path d="M3507 1952 c-11 -12 -13 -22 -6 -35 6 -9 7 -17 3 -17 -4 0 3 -8 14
-19 12 -10 19 -21 15 -25 -3 -3 -1 -6 5 -6 7 0 12 -5 12 -11 0 -16 59 -69 77
-69 8 0 11 -4 8 -10 -6 -9 8 -14 28 -11 4 0 7 -5 7 -13 0 -13 27 -31 43 -28 4
1 8 -3 8 -8 3 -20 4 -25 12 -38 5 -7 12 -10 16 -8 9 6 24 -5 37 -29 7 -11 19
-19 29 -17 10 2 14 -1 10 -7 -3 -6 -3 -11 2 -11 14 0 123 -107 116 -114 -3 -3
-1 -7 5 -7 7 -1 17 -3 22 -4 6 -1 15 -3 21 -4 5 0 7 -5 4 -11 -3 -5 2 -10 12
-10 12 0 14 -3 6 -8 -8 -5 -4 -15 15 -32 14 -14 22 -19 18 -12 -7 11 -4 11 12
1 12 -7 18 -17 15 -23 -3 -5 -1 -6 4 -3 6 4 21 -2 33 -13 13 -11 29 -20 37
-20 8 0 11 -4 8 -10 -3 -5 -3 -10 2 -11 4 0 16 -2 26 -4 9 -2 15 1 12 5 -3 5
3 14 12 20 13 8 14 13 6 16 -7 3 -13 14 -13 25 0 10 -4 19 -10 19 -5 0 -10 5
-10 10 0 12 -10 25 -50 68 -14 14 -25 31 -25 37 -1 5 -7 9 -13 7 -7 -1 -20 4
-28 13 -9 9 -11 15 -4 15 6 0 8 5 5 10 -4 6 -11 8 -16 5 -5 -4 -9 -2 -9 2 0
19 -51 62 -70 58 -11 -2 -20 -1 -20 3 0 14 -76 92 -89 92 -7 0 -9 5 -6 10 3 6
-3 10 -14 10 -11 0 -24 7 -29 16 -5 9 -12 15 -15 15 -19 -3 -21 0 -7 9 13 8
12 10 -2 10 -10 0 -18 5 -18 10 0 5 -3 9 -7 7 -5 -1 -9 2 -10 7 -3 16 -47 33
-55 22 -5 -7 -8 -4 -8 7 0 11 -4 15 -12 11 -8 -5 -9 -2 -5 9 3 9 3 16 -1 15
-14 -4 -75 12 -69 18 10 10 -12 44 -28 44 -8 0 -15 5 -15 10 0 6 -9 10 -21 10
-11 0 -17 5 -14 10 10 16 0 12 -18 -8z"/>
<path d="M2506 1421 c-9 -10 -16 -27 -16 -39 0 -12 -5 -22 -11 -22 -6 0 -8 -7
-5 -16 3 -8 2 -13 -2 -10 -4 3 -14 -5 -22 -17 -12 -21 -12 -21 6 -7 18 14 18
14 5 -2 -7 -10 -20 -18 -28 -18 -10 0 -13 -6 -9 -16 3 -8 2 -13 -3 -10 -5 3
-22 -11 -37 -32 -75 -98 -191 -174 -284 -187 -63 -8 -61 -8 -100 0 -19 4 -43
8 -52 9 -10 0 -18 3 -18 7 0 4 -16 14 -35 23 -20 10 -33 21 -30 26 3 6 0 7 -8
4 -8 -3 -18 0 -22 5 -3 6 -11 9 -16 6 -5 -3 -6 0 -3 8 3 8 -2 21 -12 28 -35
29 -74 72 -70 77 3 3 -2 18 -11 33 -18 30 -45 45 -63 34 -6 -4 -7 1 -3 11 5
14 2 16 -20 10 -16 -4 -27 -2 -27 4 0 5 -5 10 -11 10 -5 0 -7 -4 -4 -10 3 -5
2 -10 -3 -10 -5 0 -17 -12 -27 -26 -10 -15 -12 -23 -4 -19 9 6 11 3 6 -8 -3
-9 0 -23 8 -31 8 -7 11 -17 7 -21 -4 -5 -2 -5 4 -2 16 9 31 -13 28 -41 -1 -15
3 -21 11 -18 8 3 16 -5 19 -20 4 -13 11 -24 18 -24 6 0 17 -8 25 -17 8 -11 11
-12 7 -3 -7 13 -5 13 9 1 9 -7 15 -17 12 -21 -7 -11 20 -31 31 -22 4 4 3 0 -4
-9 -10 -13 -7 -18 16 -29 15 -7 31 -13 35 -11 5 1 11 -8 15 -21 5 -21 6 -21
13 -2 7 17 8 17 8 -5 1 -18 5 -22 20 -18 15 3 19 0 16 -14 -2 -11 1 -16 9 -13
7 3 29 -4 48 -16 31 -18 36 -18 42 -5 3 8 11 15 18 15 9 0 8 -3 -2 -10 -8 -5
-13 -10 -10 -11 32 -6 58 -4 69 5 11 8 13 8 8 0 -4 -8 9 -10 46 -7 61 4 147
30 147 44 0 6 -6 7 -12 3 -7 -4 -9 -3 -5 1 11 13 38 15 31 3 -3 -5 3 -4 15 4
12 7 21 16 21 21 0 4 4 6 9 3 5 -3 14 1 21 9 7 8 17 15 23 15 16 0 57 53 50
64 -4 6 1 5 10 -3 11 -9 17 -10 17 -2 0 6 18 29 40 51 22 22 40 44 40 48 0 5
9 19 20 32 16 18 17 25 8 32 -8 5 1 8 24 8 20 0 40 -4 43 -10 4 -6 -1 -7 -12
-3 -15 6 -15 3 4 -28 25 -44 51 -76 82 -103 14 -12 35 -32 48 -45 13 -13 23
-21 23 -17 0 4 13 -7 30 -24 16 -16 36 -30 43 -30 8 0 20 -7 27 -15 14 -17 35
-21 25 -5 -3 5 0 7 9 4 8 -3 13 -11 10 -18 -3 -9 11 -17 43 -26 74 -18 84 -20
78 -9 -4 5 1 9 9 9 9 0 16 -5 16 -10 0 -6 17 -9 38 -7 20 2 36 8 35 13 -1 6 4
11 12 11 8 0 12 -4 10 -8 -6 -8 26 -17 43 -12 6 3 12 11 12 19 0 9 12 14 36
14 24 0 33 4 28 12 -5 8 -2 9 9 5 11 -4 17 -1 17 9 0 8 5 12 10 9 6 -3 10 -2
10 4 0 5 18 20 40 32 25 14 39 28 35 37 -3 7 0 10 6 7 6 -4 13 2 16 14 3 12
16 24 29 27 13 3 22 11 21 18 -1 6 4 10 11 9 6 -2 12 6 12 17 0 11 7 20 15 20
8 0 14 3 14 8 -3 19 2 33 11 27 6 -3 7 1 4 9 -4 11 0 16 12 16 16 0 17 2 4 10
-8 5 -10 10 -5 10 6 0 17 11 27 23 15 22 15 25 -12 55 -25 29 -49 44 -36 23 3
-4 -6 -7 -19 -5 -14 1 -31 -4 -39 -11 -7 -8 -16 -12 -19 -9 -8 8 -49 -55 -42
-66 3 -5 2 -10 -2 -10 -5 0 -13 -10 -18 -22 -6 -14 -17 -22 -28 -20 -9 2 -17
-2 -17 -9 0 -18 -41 -70 -50 -64 -5 3 -14 -4 -20 -15 -6 -11 -15 -18 -21 -14
-13 8 -40 -16 -32 -29 3 -6 1 -7 -5 -3 -6 4 -36 0 -67 -8 -30 -8 -55 -11 -55
-8 0 4 -17 7 -38 7 -20 0 -50 5 -67 12 -16 6 -45 18 -62 25 -18 7 -33 16 -33
20 0 5 -5 8 -11 8 -14 0 -192 185 -195 203 -1 4 -2 12 -3 18 0 6 -8 8 -17 5
-9 -3 -12 -2 -9 5 4 5 -1 21 -10 36 -9 14 -12 22 -6 19 6 -4 11 -4 11 1 -1 37
-86 55 -114 24z m144 -105 c0 -3 -4 -8 -10 -11 -5 -3 -10 -1 -10 4 0 6 5 11
10 11 6 0 10 -2 10 -4z m-640 -397 c15 -28 5 -23 -15 7 -9 15 -12 23 -6 20 6
-4 16 -16 21 -27z"/>
<path d="M1625 1340 c-3 -6 1 -7 9 -4 18 7 21 14 7 14 -6 0 -13 -4 -16 -10z"/>
</g>
</svg>
